<svg version="1.1" id="Layer_1" xmlns="http://www.w3.org/2000/svg" xmlns:xlink="http://www.w3.org/1999/xlink" x="0px" y="0px"
	 width="100%" viewBox="0 0 341 137" enable-background="new 0 0 341 137" xml:space="preserve">
<path fill="#000000" opacity="1.000000" stroke="none" 
	d="
M260.000000,138.000000 
	C173.333359,138.000000 87.166710,138.000000 1.000046,138.000000 
	C1.000031,92.333366 1.000031,46.666729 1.000015,1.000071 
	C114.666603,1.000047 228.333206,1.000047 341.999878,1.000024 
	C341.999908,46.666595 341.999908,92.333191 341.999939,137.999893 
	C314.833344,138.000000 287.666656,138.000000 260.000000,138.000000 
M113.002800,119.089500 
	C113.002800,119.089500 113.095253,119.114639 113.678291,118.867943 
	C114.421387,117.892326 115.164482,116.916702 116.219673,115.320053 
	C124.541885,104.318565 123.597023,92.282074 119.840950,79.352486 
	C118.254219,77.884483 116.667480,76.416473 115.009270,74.202393 
	C114.017395,73.755043 113.025528,73.307701 111.791199,72.234802 
	C111.217346,71.143272 110.643501,70.051735 109.796288,68.324066 
	C108.932350,68.371231 108.068405,68.418388 106.705917,68.492767 
	C107.198097,66.931892 107.654083,65.485802 108.727371,63.792702 
	C110.181625,61.877983 111.635887,59.963268 113.721191,57.709641 
	C114.421623,54.462395 115.122055,51.215149 116.240074,47.239384 
	C117.565971,41.635525 117.920021,36.232895 112.918556,31.424290 
	C112.638191,31.252035 112.357826,31.079781 111.911263,30.435991 
	C111.714134,30.131794 111.434586,29.969978 110.893768,29.397211 
	C110.543640,28.940939 110.193504,28.484669 109.985779,27.574907 
	C109.985779,27.574907 110.081146,27.109253 110.654861,26.838829 
	C109.786606,25.542028 108.918358,24.245228 107.828835,22.322004 
	C106.897942,21.841274 105.967049,21.360544 104.765984,20.267572 
	C104.137199,20.824673 103.508415,21.381771 102.240776,21.666315 
	C101.094307,18.177752 99.197624,15.666870 94.338203,15.781318 
	C91.238777,14.814388 88.139351,13.847459 84.755768,12.298925 
	C83.821175,12.481168 82.886574,12.663410 81.106087,12.923960 
	C79.413559,13.008206 77.721031,13.092453 75.338676,12.837488 
	C73.885445,12.619856 72.432213,12.402224 70.158760,12.041620 
	C68.775299,12.083581 67.391830,12.125542 65.099785,12.027252 
	C61.731693,12.074200 58.363602,12.121147 54.131275,12.026886 
	C52.090855,12.063880 50.050434,12.100874 47.099827,11.999619 
	C44.161312,11.999619 41.222797,11.999619 38.166550,11.999619 
	C38.166550,15.400122 38.166550,18.198511 38.021698,21.885704 
	C38.068878,24.598295 38.116058,27.310888 38.018631,30.948166 
	C38.015755,62.922131 38.001488,94.896111 38.050388,126.869995 
	C38.052410,128.189926 38.646488,129.508926 39.896957,130.968246 
	C46.598995,130.923126 53.301037,130.878006 60.931290,130.968658 
	C68.289093,130.923111 75.646896,130.877563 83.857193,130.978729 
	C91.895218,130.160400 99.733994,128.780746 106.662643,122.832397 
	C108.122528,121.930779 109.582405,121.029160 111.673546,120.042862 
	C112.148331,119.723251 112.623116,119.403648 113.002800,119.089500 
M11.013485,44.596279 
	C11.013485,44.596279 11.168395,45.064209 11.064631,45.988670 
	C11.091996,58.325016 11.119362,70.661362 11.010143,83.927094 
	C11.009260,98.259697 10.983895,112.592407 11.048692,126.924713 
	C11.054601,128.231766 11.638633,129.536194 12.889229,130.968506 
	C18.867123,130.968506 24.845018,130.968506 30.833712,130.968506 
	C30.833712,128.906937 30.833712,127.447731 30.980267,125.058693 
	C30.930656,99.705254 30.881046,74.351807 30.987516,48.072689 
	C30.991899,37.243649 31.023973,26.414446 30.959923,15.585812 
	C30.953152,14.441369 30.381594,13.300267 29.203890,12.041709 
	C26.118662,12.736902 23.033436,13.432096 19.196815,13.996376 
	C16.797468,13.383784 14.398122,12.771193 11.160804,12.408784 
	C11.153924,22.979168 11.147044,33.549553 11.013485,44.596279 
M216.951218,92.934959 
	C216.344742,99.422684 213.951233,106.362114 215.456238,112.316116 
	C220.627808,132.775574 241.323715,136.859726 256.899780,127.296265 
	C258.975708,126.021683 261.378265,121.249405 260.607239,120.066040 
	C257.286713,114.969543 258.779724,111.222862 262.189026,107.345543 
	C262.503571,106.987801 262.814270,106.521851 262.884003,106.068779 
	C265.561157,88.672699 250.762558,74.838715 234.613358,78.615784 
	C227.410172,80.300499 222.449463,84.460793 218.021484,89.119171 
	C218.198349,82.200882 214.373444,78.336594 207.998077,76.355606 
	C207.998077,69.779579 208.047211,63.298080 207.959122,56.818447 
	C207.940140,55.421459 207.746338,53.851654 207.083237,52.670006 
	C204.665710,48.361904 199.768143,46.139530 195.597122,47.186005 
	C190.711365,48.411797 188.058716,52.060375 188.013687,57.792847 
	C187.965408,63.939640 188.002777,70.087105 188.002777,76.144012 
	C178.947037,79.918671 177.497482,81.742393 178.000168,88.548889 
	C178.338867,93.134865 181.752731,96.347610 188.001526,97.780525 
	C188.001526,105.860336 187.864868,114.003845 188.093719,122.137062 
	C188.153992,124.279137 188.908646,126.684265 190.105881,128.453232 
	C192.641647,132.199905 196.726532,133.014435 200.708115,131.646927 
	C205.130508,130.128052 208.034500,126.910164 208.008270,121.759552 
	C207.965179,113.293915 207.996613,104.827896 207.996613,97.336075 
	C211.453934,95.321785 214.189072,93.728271 216.951218,92.934959 
M289.976562,124.795685 
	C291.217621,129.292328 294.307495,131.556396 298.820251,132.004486 
	C303.422791,132.461487 306.894653,130.368698 307.850159,126.040092 
	C309.076172,120.486023 309.659454,114.729614 309.880615,109.035561 
	C310.027283,105.260071 311.563690,103.162430 315.006470,101.460808 
	C315.006470,108.110031 314.811951,114.280151 315.056915,120.432777 
	C315.347351,127.727722 320.111816,132.394775 326.390656,132.000061 
	C331.995331,131.647736 336.321808,126.602844 336.015991,121.106743 
	C335.575043,113.182159 335.413574,105.242195 334.988983,97.316498 
	C334.570312,89.500435 330.587616,79.384232 320.181366,79.709717 
	C316.549896,79.823296 312.946747,80.682304 309.312164,80.934967 
	C307.789276,81.040833 305.874603,80.932274 304.726562,80.104759 
	C298.580505,75.674599 291.516998,78.370430 289.157654,86.389160 
	C289.099915,98.105598 289.022858,109.822044 289.025116,121.538475 
	C289.025269,122.376976 289.605835,123.215363 289.976562,124.795685 
M146.270004,130.705261 
	C147.587631,130.813751 148.905853,130.915558 150.222778,131.031921 
	C155.136047,131.466064 159.913513,130.252945 165.061859,131.726135 
	C171.998383,133.710983 176.650360,129.249634 176.962433,121.841797 
	C177.159622,117.161064 176.995941,112.465179 176.996338,107.776093 
	C176.996872,101.457779 177.128494,95.136169 176.967422,88.822006 
	C176.782135,81.558823 168.870255,75.430084 163.164047,78.662865 
	C159.217880,80.898499 155.762497,80.618759 151.828217,80.088585 
	C150.249680,79.875862 148.543457,80.143028 146.962128,80.493240 
	C135.392471,83.055534 129.537888,90.172646 127.710899,102.049110 
	C125.741203,114.853310 132.440506,127.232887 146.270004,130.705261 
M265.001770,71.597916 
	C266.448547,75.081253 267.895355,78.564583 269.556458,82.563934 
	C268.845978,83.829346 266.302094,86.314270 266.199554,88.896149 
	C265.750183,100.211411 265.365692,111.604721 266.242371,122.869728 
	C266.794739,129.967880 270.651154,132.516434 277.253052,132.048874 
	C282.391479,131.684952 285.966461,127.775681 285.990143,122.078545 
	C286.023376,114.078796 285.798523,106.072144 286.063354,98.081024 
	C286.278534,91.587570 286.324921,85.365112 279.623077,81.438782 
	C281.441437,79.399879 283.460297,77.964859 284.270782,76.024971 
	C285.370605,73.392654 286.554291,70.114113 285.901031,67.576317 
	C284.647614,62.706833 279.539032,59.379913 275.742157,60.022293 
	C271.678864,60.709763 264.678986,65.440483 265.001770,71.597916 
z"/>
<path fill="#028DBC" opacity="1.000000" stroke="none" 
	d="
M289.908936,85.951355 
	C291.516998,78.370430 298.580505,75.674599 304.726562,80.104759 
	C305.874603,80.932274 307.789276,81.040833 309.312164,80.934967 
	C312.946747,80.682304 316.549896,79.823296 320.181366,79.709717 
	C330.587616,79.384232 334.570312,89.500435 334.988983,97.316498 
	C335.413574,105.242195 335.575043,113.182159 336.015991,121.106743 
	C336.321808,126.602844 331.995331,131.647736 326.390656,132.000061 
	C320.111816,132.394775 315.347351,127.727722 315.056915,120.432777 
	C314.811951,114.280151 315.006470,108.110031 315.006470,101.460808 
	C311.563690,103.162430 310.027283,105.260071 309.880615,109.035561 
	C309.659454,114.729614 309.076172,120.486023 307.850159,126.040092 
	C306.894653,130.368698 303.422791,132.461487 298.820251,132.004486 
	C294.307495,131.556396 291.217621,129.292328 289.999329,123.955711 
	C289.984344,110.727608 289.946625,98.339485 289.908936,85.951355 
M294.330627,86.891235 
	C294.224884,95.344704 294.025696,103.798515 294.057526,112.251465 
	C294.071014,115.837883 294.569000,119.422470 294.997925,123.781227 
	C296.685699,124.829460 298.747406,127.037842 299.970245,126.643669 
	C301.645111,126.103790 303.623535,123.687553 303.813599,121.899292 
	C304.337708,116.967094 303.977417,111.943130 304.008789,106.955719 
	C304.038208,102.274773 309.528809,96.472237 314.227692,95.988960 
	C317.363892,95.666420 319.868469,96.135246 320.054535,99.985031 
	C320.396362,107.057701 320.793060,114.129913 320.970917,121.207253 
	C321.044098,124.118828 321.358246,126.849396 324.872955,126.893181 
	C328.272888,126.935539 330.207672,125.222404 330.070709,121.295891 
	C329.821686,114.155708 329.989471,107.000809 329.992584,99.852051 
	C329.998260,86.753891 323.604462,82.300293 311.539276,86.759872 
	C308.981995,87.705116 306.153992,89.376976 303.495636,86.080528 
	C300.064606,81.825905 298.739441,82.016907 294.330627,86.891235 
z"/>
<path fill="#028DBC" opacity="1.000000" stroke="none" 
	d="
M216.924194,92.134750 
	C214.189072,93.728271 211.453934,95.321785 207.996613,97.336075 
	C207.996613,104.827896 207.965179,113.293915 208.008270,121.759552 
	C208.034500,126.910164 205.130508,130.128052 200.708115,131.646927 
	C196.726532,133.014435 192.641647,132.199905 190.105881,128.453232 
	C188.908646,126.684265 188.153992,124.279137 188.093719,122.137062 
	C187.864868,114.003845 188.001526,105.860336 188.001526,97.780525 
	C181.752731,96.347610 178.338867,93.134865 178.000168,88.548889 
	C177.497482,81.742393 178.947037,79.918671 188.002777,76.144012 
	C188.002777,70.087105 187.965408,63.939640 188.013687,57.792847 
	C188.058716,52.060375 190.711365,48.411797 195.597122,47.186005 
	C199.768143,46.139530 204.665710,48.361904 207.083237,52.670006 
	C207.746338,53.851654 207.940140,55.421459 207.959122,56.818447 
	C208.047211,63.298080 207.998077,69.779579 207.998077,76.355606 
	C214.373444,78.336594 218.198349,82.200882 217.806244,89.567871 
	C217.368729,90.722633 217.146454,91.428688 216.924194,92.134750 
M189.282959,92.015160 
	C190.520905,93.828697 192.733688,95.593361 192.827469,97.464264 
	C193.226974,105.433167 193.056915,113.434143 192.969421,121.422028 
	C192.939026,124.198219 193.495117,126.686066 196.600586,126.877586 
	C199.317657,127.045143 201.815323,126.034538 202.159683,122.593636 
	C202.336609,120.825882 202.944748,119.080734 202.963348,117.321198 
	C203.051163,109.017357 203.002487,100.712082 203.002487,92.419853 
	C204.847305,91.874374 206.663788,91.774620 207.886810,90.871330 
	C209.644531,89.573120 210.970062,87.689758 212.480087,86.056168 
	C210.618088,84.709747 208.846619,82.411545 206.874374,82.223915 
	C203.267532,81.880791 202.940674,80.102737 202.975021,77.291733 
	C203.056335,70.635414 203.289383,63.955154 202.795547,57.334213 
	C202.657761,55.486828 200.199112,53.812546 198.805145,52.058857 
	C197.200882,53.551239 194.425186,54.886784 194.200653,56.563892 
	C193.351105,62.909321 193.218796,69.362488 193.041733,75.781517 
	C192.946381,79.238518 193.469940,82.323479 188.141571,82.351021 
	C186.425430,82.359894 183.718338,85.645485 183.257065,87.813431 
	C182.562134,91.079803 185.386536,92.193771 189.282959,92.015160 
z"/>
<path fill="#038DBC" opacity="1.000000" stroke="none" 
	d="
M216.937698,92.534851 
	C217.146454,91.428688 217.368729,90.722633 217.856384,89.974503 
	C222.449463,84.460793 227.410172,80.300499 234.613358,78.615784 
	C250.762558,74.838715 265.561157,88.672699 262.884003,106.068779 
	C262.814270,106.521851 262.503571,106.987801 262.189026,107.345543 
	C258.779724,111.222862 257.286713,114.969543 260.607239,120.066040 
	C261.378265,121.249405 258.975708,126.021683 256.899780,127.296265 
	C241.323715,136.859726 220.627808,132.775574 215.456238,112.316116 
	C213.951233,106.362114 216.344742,99.422684 216.937698,92.534851 
M244.064728,117.922554 
	C239.348938,118.304283 234.657333,118.490189 231.522141,113.991356 
	C230.832977,113.002449 229.992706,111.439659 230.338135,110.600685 
	C230.681015,109.767914 232.415451,109.123146 233.567108,109.076645 
	C237.962555,108.899170 242.373734,109.120529 246.770187,108.956161 
	C251.231140,108.789375 257.672150,106.903816 257.982513,103.549515 
	C259.077972,91.711296 250.100510,82.068451 237.899658,83.554436 
	C227.133057,84.865730 221.877731,91.869255 220.265594,101.750038 
	C218.851212,110.418877 221.071655,118.467133 228.376038,123.662056 
	C234.905014,128.305496 246.242004,128.254272 252.548080,123.590790 
	C253.827011,122.645004 255.150589,119.646111 254.602814,118.818123 
	C253.684280,117.429703 251.338211,116.607094 249.479172,116.341209 
	C248.033463,116.134430 246.414719,117.137558 244.064728,117.922554 
z"/>
<path fill="#048EBC" opacity="1.000000" stroke="none" 
	d="
M145.934998,130.442871 
	C132.440506,127.232887 125.741203,114.853310 127.710899,102.049110 
	C129.537888,90.172646 135.392471,83.055534 146.962128,80.493240 
	C148.543457,80.143028 150.249680,79.875862 151.828217,80.088585 
	C155.762497,80.618759 159.217880,80.898499 163.164047,78.662865 
	C168.870255,75.430084 176.782135,81.558823 176.967422,88.822006 
	C177.128494,95.136169 176.996872,101.457779 176.996338,107.776093 
	C176.995941,112.465179 177.159622,117.161064 176.962433,121.841797 
	C176.650360,129.249634 171.998383,133.710983 165.061859,131.726135 
	C159.913513,130.252945 155.136047,131.466064 150.222778,131.031921 
	C148.905853,130.915558 147.587631,130.813751 145.934998,130.442871 
M137.976151,120.473572 
	C143.038544,124.956696 148.594696,127.121155 155.556534,125.377419 
	C158.078781,124.745682 161.162827,125.184425 163.698242,126.020782 
	C169.053497,127.787323 171.955612,126.046745 171.988770,120.297165 
	C172.043442,110.818817 172.037613,101.339668 171.966766,91.861534 
	C171.956116,90.435722 171.592148,88.970055 171.156082,87.597664 
	C169.685333,82.968803 167.247742,82.210960 163.116272,84.335976 
	C161.056854,85.395241 158.522751,85.722458 156.160736,85.964012 
	C150.742996,86.518066 145.126511,84.818054 140.201248,89.144302 
	C132.665207,95.763786 130.210968,110.935768 137.976151,120.473572 
z"/>
<path fill="#028DBB" opacity="1.000000" stroke="none" 
	d="
M265.001984,71.184448 
	C264.678986,65.440483 271.678864,60.709763 275.742157,60.022293 
	C279.539032,59.379913 284.647614,62.706833 285.901031,67.576317 
	C286.554291,70.114113 285.370605,73.392654 284.270782,76.024971 
	C283.460297,77.964859 281.441437,79.399879 279.623077,81.438782 
	C286.324921,85.365112 286.278534,91.587570 286.063354,98.081024 
	C285.798523,106.072144 286.023376,114.078796 285.990143,122.078545 
	C285.966461,127.775681 282.391479,131.684952 277.253052,132.048874 
	C270.651154,132.516434 266.794739,129.967880 266.242371,122.869728 
	C265.365692,111.604721 265.750183,100.211411 266.199554,88.896149 
	C266.302094,86.314270 268.845978,83.829346 269.556458,82.563934 
	C267.895355,78.564583 266.448547,75.081253 265.001984,71.184448 
M270.998230,99.545013 
	C270.998230,103.694565 270.902527,107.846970 271.026550,111.992813 
	C271.139008,115.751953 271.117889,119.586113 271.918304,123.219170 
	C272.244720,124.700890 274.772644,126.903748 275.959137,126.708900 
	C277.766754,126.412056 280.645752,124.368233 280.699036,122.975517 
	C281.104858,112.370636 281.197693,101.730988 280.686737,91.135979 
	C280.600403,89.346008 277.309692,86.585297 275.198883,86.267059 
	C271.510925,85.711029 271.143860,89.216537 271.020447,92.091545 
	C270.927979,94.245399 270.999664,96.406296 270.998230,99.545013 
M276.517517,76.099777 
	C277.680237,75.210754 279.348877,74.552338 279.884369,73.377419 
	C280.644409,71.709877 281.123749,69.510445 280.663025,67.828697 
	C280.341766,66.656181 278.351166,65.490448 276.916046,65.167702 
	C273.951691,64.501060 270.114166,68.562851 270.030579,72.184212 
	C269.935089,76.321037 272.652832,76.844513 276.517517,76.099777 
z"/>
<path fill="#1E9AC3" opacity="1.000000" stroke="none" 
	d="
M30.833714,125.988525 
	C30.833712,127.447731 30.833712,128.906937 30.833712,130.968506 
	C24.845018,130.968506 18.867123,130.968506 12.426734,130.447052 
	C12.032296,117.622673 12.100354,105.319725 12.509134,93.078888 
	C13.907254,94.577507 14.964652,96.014030 15.613113,96.894997 
	C18.079269,95.121819 19.568871,94.050797 21.172285,93.185921 
	C21.481663,93.646317 21.723831,93.843254 22.006157,94.411011 
	C22.332611,97.559990 22.665516,100.280846 23.002007,103.334549 
	C23.332039,104.446136 23.658485,105.224869 24.143200,106.281082 
	C25.199293,107.048798 26.097118,107.539047 27.058531,108.342819 
	C27.989685,109.110634 28.857250,109.564926 29.818384,110.475708 
	C30.219204,115.950981 30.526459,120.969749 30.833714,125.988525 
z"/>
<path fill="#1F9AC3" opacity="1.000000" stroke="none" 
	d="
M60.003075,130.832886 
	C53.301037,130.878006 46.598995,130.923126 39.436432,130.440903 
	C38.997147,122.277489 39.018387,114.641426 39.418941,106.943558 
	C43.591702,105.430344 46.425484,105.885902 49.106339,109.605057 
	C50.839283,112.009163 54.201241,113.239037 56.902615,115.430893 
	C57.093525,117.210831 57.215015,118.554985 57.360661,120.166374 
	C60.902935,120.166374 63.953003,120.166374 66.997864,120.547287 
	C66.210152,121.964020 65.593109,123.677582 64.615967,123.916145 
	C60.769920,124.855110 59.538872,127.193375 60.003075,130.832886 
z"/>
<path fill="#3EA8CC" opacity="1.000000" stroke="none" 
	d="
M81.951981,12.845654 
	C82.886574,12.663410 83.821175,12.481168 84.887993,13.011553 
	C85.452133,16.296631 85.884041,18.869081 86.315948,21.441534 
	C86.635078,21.380171 86.954208,21.318806 87.273338,21.257442 
	C87.864998,19.870333 88.456665,18.483221 89.488213,16.064833 
	C91.060829,18.416065 92.079819,19.939575 93.566498,22.162329 
	C94.192291,19.566294 94.606873,17.846470 95.021446,16.126646 
	C99.197624,15.666870 101.094307,18.177752 102.574387,22.152290 
	C102.139908,24.096539 101.371826,25.554811 100.444916,27.286636 
	C102.476837,29.700893 104.667564,31.841597 107.036705,34.342060 
	C107.857048,39.064213 108.498970,43.426609 109.005623,48.021202 
	C108.605148,48.486996 108.339943,48.720589 108.022926,48.621143 
	C107.629532,47.224125 107.287956,46.160149 106.958649,44.781738 
	C106.128677,43.773716 105.286430,43.080124 104.444191,42.386528 
	C103.961472,43.258091 103.478752,44.129654 102.758026,45.001564 
	C102.520020,45.001907 102.043999,45.002899 101.933624,44.807884 
	C101.648941,44.363335 101.428345,44.165386 100.999359,43.673256 
	C99.265282,35.766983 94.256729,30.943150 87.965042,26.807264 
	C87.869606,25.609623 87.763397,24.754421 87.490479,22.556898 
	C86.619278,24.570251 86.282196,25.349253 85.727081,26.087318 
	C85.509048,26.046387 85.073845,26.132643 85.014313,25.769100 
	C84.023964,23.911942 83.093147,22.418325 82.162323,20.924709 
	C81.771530,21.195576 81.380745,21.466442 80.989952,21.737309 
	C80.989952,23.110596 80.989952,24.483881 80.582329,25.896309 
	C77.454956,25.579241 74.735214,25.223032 71.961517,24.516994 
	C70.268799,22.444855 68.630035,20.722542 66.737808,18.712948 
	C66.325699,16.339611 66.167038,14.253556 66.008369,12.167502 
	C67.391830,12.125542 68.775299,12.083581 70.632935,12.448451 
	C72.064896,14.541335 72.713181,16.563135 74.071205,17.815018 
	C75.323204,18.969156 77.337364,19.296507 79.379501,19.989550 
	C87.486374,18.161472 78.824638,16.485052 79.108322,15.899986 
	C80.631638,14.263818 81.291809,13.554736 81.951981,12.845654 
z"/>
<path fill="#2EA1C7" opacity="1.000000" stroke="none" 
	d="
M106.046860,123.102280 
	C99.733994,128.780746 91.895218,130.160400 83.418686,130.551743 
	C81.843735,128.439865 80.572823,126.827980 79.607681,125.050102 
	C78.587906,123.171608 77.859482,121.134941 77.425606,119.091003 
	C86.130524,118.788528 92.981255,115.175392 99.496796,110.096756 
	C100.542633,112.115509 101.261871,114.034836 101.756119,116.147629 
	C101.350937,116.894272 101.170723,117.447441 100.761757,118.225281 
	C100.792610,119.538666 101.052231,120.627380 101.311844,121.716095 
	C101.808182,121.597069 102.304520,121.478050 102.800858,121.359032 
	C102.538979,120.250938 102.277100,119.142838 102.388252,118.027496 
	C103.507996,118.019020 104.254700,118.017776 105.003464,118.394501 
	C105.352623,120.215744 105.699745,121.659012 106.046860,123.102280 
z"/>
<path fill="#37A5CA" opacity="1.000000" stroke="none" 
	d="
M120.167992,79.968140 
	C123.597023,92.282074 124.541885,104.318565 115.728409,115.692841 
	C114.523178,117.081963 113.809219,118.098297 113.095253,119.114639 
	C113.095253,119.114639 113.002800,119.089500 112.699112,119.049095 
	C111.926056,119.005829 111.456703,119.002975 110.657532,119.000336 
	C109.887993,119.001183 109.448250,119.001831 108.877487,118.739510 
	C108.162956,117.969734 107.579453,117.462929 107.057602,116.650406 
	C107.746910,115.896339 108.374565,115.447990 109.320129,115.142914 
	C110.649300,115.185417 111.660553,115.084648 112.671814,114.983887 
	C111.716057,112.227119 111.083740,109.279625 109.630966,106.815941 
	C109.115059,105.941048 106.603951,106.242691 104.799927,105.774254 
	C104.018524,105.345787 103.440849,105.150307 102.921326,104.621803 
	C103.267624,103.513084 103.555756,102.737389 104.121536,101.770050 
	C104.601532,100.721024 104.803894,99.863617 105.388641,99.008667 
	C108.513062,101.006714 111.255096,103.002312 114.307892,104.940201 
	C115.075851,104.251656 115.533058,103.620811 115.990295,102.617752 
	C115.989265,101.501068 115.988197,100.756622 115.958771,99.720749 
	C115.624886,98.954147 115.319374,98.478958 115.168137,97.648102 
	C116.199234,93.842606 117.076050,90.392776 117.954529,86.538010 
	C118.693451,84.078087 119.430717,82.023117 120.167992,79.968140 
z"/>
<path fill="#2CA0C7" opacity="1.000000" stroke="none" 
	d="
M11.998775,12.158601 
	C14.398122,12.771193 16.797468,13.383784 19.419376,14.394379 
	C18.719923,17.087013 17.797905,19.381647 16.285412,23.145802 
	C18.607639,22.250996 20.746288,22.073811 21.641880,20.926388 
	C22.905451,19.307516 23.249138,16.970654 23.986099,14.940753 
	C24.324228,15.030654 24.662355,15.120555 25.000484,15.210456 
	C25.000484,18.595762 25.000484,21.981070 25.000484,25.565903 
	C27.144495,24.430141 28.480473,23.722425 29.879030,23.468102 
	C29.913225,27.277208 29.884840,30.632923 29.475193,33.993385 
	C26.897692,33.960747 24.737219,33.780666 25.737354,37.270279 
	C25.935102,37.960255 24.611637,39.086220 23.712185,39.853958 
	C22.622459,38.465343 21.810247,37.233887 20.972816,35.753860 
	C20.305841,35.329094 19.664085,35.152897 18.765934,34.966606 
	C18.338505,34.959858 18.167473,34.963207 17.753056,34.736782 
	C16.913795,32.486767 16.449478,30.231627 13.351103,32.029312 
	C13.022325,30.862692 12.907440,29.964521 13.020176,28.910416 
	C12.891356,28.160978 12.534916,27.567474 12.127939,26.550652 
	C12.454113,23.421925 12.830823,20.716518 13.511656,17.921703 
	C16.144709,15.244208 13.939981,15.241428 12.132448,14.630262 
	C12.050084,13.573341 12.024429,12.865971 11.998775,12.158601 
z"/>
<path fill="#37A5CA" opacity="1.000000" stroke="none" 
	d="
M38.163239,30.023479 
	C38.116058,27.310888 38.068878,24.598295 38.451954,21.430172 
	C42.621803,18.748999 46.714661,16.888252 48.010014,12.137868 
	C50.050434,12.100874 52.090855,12.063880 54.578560,12.466217 
	C57.488270,17.240044 57.259830,21.059933 53.215160,24.473938 
	C52.399330,25.162556 52.384552,26.800201 52.000229,28.000153 
	C52.000000,28.000000 52.000305,28.000401 51.701759,28.161798 
	C48.935295,29.216713 46.467369,30.110229 43.584259,31.002831 
	C41.787041,31.004601 40.405010,31.007284 38.920265,30.812767 
	C38.648281,30.364239 38.430180,30.166878 38.163239,30.023479 
z"/>
<path fill="#269DC5" opacity="1.000000" stroke="none" 
	d="
M77.003784,119.167374 
	C77.859482,121.134941 78.587906,123.171608 79.607681,125.050102 
	C80.572823,126.827980 81.843735,128.439865 82.992432,130.478394 
	C75.646896,130.877563 68.289093,130.923111 60.467182,130.900772 
	C59.538872,127.193375 60.769920,124.855110 64.615967,123.916145 
	C65.593109,123.677582 66.210152,121.964020 67.418793,120.479446 
	C70.897873,119.742912 73.950829,119.455139 77.003784,119.167374 
z"/>
<path fill="#31A2C8" opacity="1.000000" stroke="none" 
	d="
M52.000458,28.000305 
	C52.384552,26.800201 52.399330,25.162556 53.215160,24.473938 
	C57.259830,21.059933 57.488270,17.240044 55.010681,12.536821 
	C58.363602,12.121147 61.731693,12.074200 65.554077,12.097378 
	C66.167038,14.253556 66.325699,16.339611 66.739006,19.129803 
	C67.001266,21.499653 67.008873,23.165365 66.569229,24.900486 
	C64.356293,24.980185 62.539841,24.737833 60.840652,25.079191 
	C59.433239,25.361935 58.164139,26.333143 56.484604,27.058048 
	C54.757118,27.411278 53.378788,27.705791 52.000458,28.000305 
z"/>
<path fill="#5BB5D3" opacity="1.000000" stroke="none" 
	d="
M120.004471,79.660309 
	C119.430717,82.023117 118.693451,84.078087 117.598526,86.554108 
	C116.159264,86.650063 115.077644,86.324982 114.001022,85.571030 
	C113.897133,82.945541 113.788239,80.748940 113.679352,78.552330 
	C113.228004,78.456161 112.776649,78.359993 112.325302,78.263824 
	C111.537636,79.730873 110.652779,81.154961 109.981537,82.673477 
	C108.330040,86.409584 106.776779,90.189125 105.112694,93.546989 
	C104.599060,90.767105 104.156738,88.391434 104.046753,85.880447 
	C104.938911,82.798676 105.498726,79.852203 106.416992,76.922058 
	C108.490974,76.386673 110.206520,75.834969 111.975983,75.525017 
	C113.046852,75.493996 114.063805,75.221230 115.080750,74.948471 
	C116.667480,76.416473 118.254219,77.884483 120.004471,79.660309 
z"/>
<path fill="#57B3D2" opacity="1.000000" stroke="none" 
	d="
M106.858292,33.982300 
	C104.667564,31.841597 102.476837,29.700893 100.789139,27.270519 
	C102.163704,26.374245 103.035233,25.767643 103.981728,25.477257 
	C104.993782,26.105366 105.930855,26.417259 107.265305,26.816622 
	C108.468834,26.972477 109.274986,27.040865 110.081146,27.109253 
	C110.081146,27.109253 109.985779,27.574907 109.725502,28.003141 
	C110.001022,28.937765 110.536819,29.444155 111.072617,29.950546 
	C111.434586,29.969978 111.714134,30.131794 111.823517,30.821186 
	C111.808876,31.585344 111.881989,31.964312 111.955101,32.343277 
	C112.325310,32.198421 112.695511,32.053562 113.065720,31.908703 
	C117.920021,36.232895 117.565971,41.635525 115.685883,47.662277 
	C114.009499,48.327312 112.887321,48.569447 111.846481,48.454369 
	C112.326691,47.035709 112.777527,45.990547 113.115921,44.910168 
	C115.230949,38.157616 112.853859,34.022945 106.858292,33.982300 
z"/>
<path fill="#38A5CA" opacity="1.000000" stroke="none" 
	d="
M29.816450,23.014709 
	C28.480473,23.722425 27.144495,24.430141 25.000484,25.565903 
	C25.000484,21.981070 25.000484,18.595762 25.000484,15.210456 
	C24.662355,15.120555 24.324228,15.030654 23.986099,14.940753 
	C23.249138,16.970654 22.905451,19.307516 21.641880,20.926388 
	C20.746288,22.073811 18.607639,22.250996 16.285412,23.145802 
	C17.797905,19.381647 18.719923,17.087013 19.795074,14.459835 
	C23.033436,13.432096 26.118662,12.736902 29.627541,12.547844 
	C29.972944,16.374222 29.894697,19.694468 29.816450,23.014709 
z"/>
<path fill="#4CAECF" opacity="1.000000" stroke="none" 
	d="
M38.090935,30.485823 
	C38.430180,30.166878 38.648281,30.364239 38.913307,31.276306 
	C39.022640,36.295712 39.036205,40.654377 39.040901,45.480793 
	C39.034565,66.300812 39.037094,86.653084 39.039627,107.005356 
	C39.018387,114.641426 38.997147,122.277489 38.970322,130.370972 
	C38.646488,129.508926 38.052410,128.189926 38.050388,126.869995 
	C38.001488,94.896111 38.015755,62.922131 38.090935,30.485823 
z"/>
<path fill="#B0DAEA" opacity="1.000000" stroke="none" 
	d="
M11.146728,82.997704 
	C11.119362,70.661362 11.091996,58.325016 11.426342,45.579227 
	C12.838840,46.456383 13.889627,47.742981 14.964878,49.354092 
	C15.048482,50.108727 15.107622,50.538849 15.038946,51.361031 
	C14.630345,54.505016 14.349563,57.256943 13.987734,60.433022 
	C13.575956,66.577721 13.245226,72.298264 12.854228,78.247894 
	C12.793961,78.476982 12.822104,78.949905 12.756845,79.302979 
	C12.598848,80.366539 12.506110,81.077026 12.322601,81.987160 
	C12.171636,82.475632 12.069098,82.748558 11.729856,83.002563 
	C11.535494,82.999550 11.146728,82.997704 11.146728,82.997704 
z"/>
<path fill="#36A4C9" opacity="1.000000" stroke="none" 
	d="
M102.863174,104.954819 
	C103.440849,105.150307 104.018524,105.345787 104.814026,106.138489 
	C106.355309,109.490349 107.678764,112.244995 109.002220,114.999649 
	C108.374565,115.447990 107.746910,115.896339 106.856094,116.867188 
	C107.398117,117.927284 108.203316,118.464874 109.008514,119.002472 
	C109.448250,119.001831 109.887993,119.001183 110.667244,119.282387 
	C111.018600,119.751999 111.030441,119.939774 111.042282,120.127541 
	C109.582405,121.029160 108.122528,121.930779 106.354752,122.967339 
	C105.699745,121.659012 105.352623,120.215744 104.935623,118.055801 
	C103.904190,116.877480 102.942642,116.415817 101.981102,115.954163 
	C101.261871,114.034836 100.542633,112.115509 99.522018,109.769753 
	C100.434822,107.880493 101.649002,106.417664 102.863174,104.954819 
z"/>
<path fill="#D2E9EE" opacity="1.000000" stroke="none" 
	d="
M30.906990,125.523605 
	C30.526459,120.969749 30.219204,115.950981 29.894115,110.011086 
	C29.295822,102.037811 28.715363,94.985664 28.213085,87.635185 
	C28.578705,86.581726 28.866146,85.826599 29.469015,84.783371 
	C29.810593,75.339745 29.836742,66.184212 29.932558,56.626293 
	C29.955387,55.139603 29.908548,54.055298 29.904659,52.648285 
	C29.920328,51.893311 29.893049,51.461037 29.940922,50.685619 
	C30.080624,49.878902 30.145174,49.415325 30.365101,48.964111 
	C30.520473,48.976475 30.831436,48.998363 30.831436,48.998363 
	C30.881046,74.351807 30.930656,99.705254 30.906990,125.523605 
z"/>
<path fill="#80C6DD" opacity="1.000000" stroke="none" 
	d="
M106.946373,45.096169 
	C107.287956,46.160149 107.629532,47.224125 108.040329,48.958878 
	C108.509529,50.434616 108.909523,51.239582 109.261795,52.433434 
	C109.115723,53.861530 109.017365,54.900742 108.657761,56.195160 
	C108.301025,58.980148 108.205551,61.509930 108.110077,64.039711 
	C107.654083,65.485802 107.198097,66.931892 106.705917,68.492767 
	C108.068405,68.418388 108.932350,68.371231 109.707504,68.810867 
	C109.056969,70.549706 108.495224,71.801750 107.688370,73.050385 
	C107.443268,73.046989 106.952377,73.074219 106.878387,72.715530 
	C105.907127,68.782684 104.281868,65.208710 104.281006,61.634338 
	C104.279663,56.091431 105.385628,50.548252 106.253799,45.021751 
	C106.485466,45.038319 106.946373,45.096169 106.946373,45.096169 
z"/>
<path fill="#3FA8CC" opacity="1.000000" stroke="none" 
	d="
M47.554920,12.068743 
	C46.714661,16.888252 42.621803,18.748999 38.524380,20.985771 
	C38.166550,18.198511 38.166550,15.400122 38.166550,11.999619 
	C41.222797,11.999619 44.161312,11.999619 47.554920,12.068743 
z"/>
<path fill="#B7DDEC" opacity="1.000000" stroke="none" 
	d="
M12.792557,29.066349 
	C12.907440,29.964521 13.022325,30.862692 13.447281,32.412621 
	C13.901164,34.385159 14.044974,35.705944 14.164812,37.353745 
	C14.215458,38.111347 14.290077,38.541935 14.242270,39.178707 
	C13.433771,39.920635 12.525396,40.326290 12.116854,41.024437 
	C11.584023,41.934982 11.447318,43.077332 11.140165,44.119938 
	C11.147044,33.549553 11.153924,22.979168 11.579790,12.283692 
	C12.024429,12.865971 12.050084,13.573341 12.094631,14.960882 
	C12.478192,16.431072 12.842863,17.221092 13.207534,18.011112 
	C12.830823,20.716518 12.454113,23.421925 12.087444,26.834785 
	C12.329177,28.050276 12.560867,28.558313 12.792557,29.066349 
z"/>
<path fill="#4AADCF" opacity="1.000000" stroke="none" 
	d="
M94.679825,15.953981 
	C94.606873,17.846470 94.192291,19.566294 93.566498,22.162329 
	C92.079819,19.939575 91.060829,18.416065 89.488213,16.064833 
	C88.456665,18.483221 87.864998,19.870333 87.273338,21.257442 
	C86.954208,21.318806 86.635078,21.380171 86.315948,21.441534 
	C85.884041,18.869081 85.452133,16.296631 85.030075,13.302354 
	C88.139351,13.847459 91.238777,14.814388 94.679825,15.953981 
z"/>
<path fill="#38A5CA" opacity="1.000000" stroke="none" 
	d="
M108.919014,55.939957 
	C109.017365,54.900742 109.115723,53.861530 109.562057,52.320099 
	C110.263306,50.825813 110.616577,49.833740 111.167862,48.812984 
	C111.365891,48.784302 111.765137,48.811584 111.765137,48.811584 
	C112.887321,48.569447 114.009499,48.327312 115.477089,48.026539 
	C115.122055,51.215149 114.421623,54.462395 113.095512,57.740433 
	C111.286224,57.160805 110.102623,56.550381 108.919014,55.939957 
z"/>
<path fill="#B9DFED" opacity="1.000000" stroke="none" 
	d="
M11.078436,83.462402 
	C11.146728,82.997704 11.535494,82.999550 11.761053,83.456223 
	C12.047212,86.947525 12.107811,89.982155 12.168411,93.016785 
	C12.100354,105.319725 12.032296,117.622673 11.959220,130.383728 
	C11.638633,129.536194 11.054601,128.231766 11.048692,126.924713 
	C10.983895,112.592407 11.009260,98.259697 11.078436,83.462402 
z"/>
<path fill="#75C1DA" opacity="1.000000" stroke="none" 
	d="
M289.533264,86.170258 
	C289.946625,98.339485 289.984344,110.727608 289.969299,123.584763 
	C289.605835,123.215363 289.025269,122.376976 289.025116,121.538475 
	C289.022858,109.822044 289.099915,98.105598 289.533264,86.170258 
z"/>
<path fill="#CEE7FB" opacity="1.000000" stroke="none" 
	d="
M30.909477,48.535526 
	C30.831436,48.998363 30.520473,48.976475 30.274687,48.969391 
	C30.028900,48.962311 29.862400,49.033504 29.906799,48.634277 
	C29.874987,47.171745 29.798775,46.108448 29.770176,44.702629 
	C29.822134,43.900436 29.826477,43.440758 29.902002,42.536636 
	C29.934275,39.391006 29.895365,36.689823 29.856455,33.988636 
	C29.884840,30.632923 29.913225,27.277208 29.879030,23.468103 
	C29.894697,19.694468 29.972944,16.374222 30.061625,12.605797 
	C30.381594,13.300267 30.953152,14.441369 30.959923,15.585812 
	C31.023973,26.414446 30.991899,37.243649 30.909477,48.535526 
z"/>
<path fill="#31A2C8" opacity="1.000000" stroke="none" 
	d="
M79.015808,19.988041 
	C77.337364,19.296507 75.323204,18.969156 74.071205,17.815018 
	C72.713181,16.563135 72.064896,14.541335 71.043045,12.519937 
	C72.432213,12.402224 73.885445,12.619856 75.693245,13.364807 
	C77.037148,15.924098 78.026474,17.956070 79.015808,19.988041 
z"/>
<path fill="#40A9CC" opacity="1.000000" stroke="none" 
	d="
M11.076825,44.358109 
	C11.447318,43.077332 11.584023,41.934982 12.116854,41.024437 
	C12.525396,40.326290 13.433771,39.920635 14.548415,39.283268 
	C18.222509,42.476387 15.832473,45.750202 14.940414,49.029579 
	C13.889627,47.742981 12.838840,46.456383 11.478224,45.116997 
	C11.168395,45.064209 11.013485,44.596279 11.076825,44.358109 
z"/>
<path fill="#4AADCF" opacity="1.000000" stroke="none" 
	d="
M108.657761,56.195160 
	C110.102623,56.550381 111.286224,57.160805 112.779984,57.909889 
	C111.635887,59.963268 110.181625,61.877983 108.418724,63.916206 
	C108.205551,61.509930 108.301025,58.980148 108.657761,56.195160 
z"/>
<path fill="#4AADCF" opacity="1.000000" stroke="none" 
	d="
M79.379501,19.989550 
	C78.026474,17.956070 77.037148,15.924098 76.038162,13.534413 
	C77.721031,13.092453 79.413559,13.008206 81.529037,12.884807 
	C81.291809,13.554736 80.631638,14.263818 79.108322,15.899986 
	C78.824638,16.485052 87.486374,18.161472 79.379501,19.989550 
z"/>
<path fill="#BEE2EF" opacity="1.000000" stroke="none" 
	d="
M106.867935,26.729153 
	C105.930855,26.417259 104.993782,26.105366 104.026794,25.101583 
	C104.343315,23.233067 104.689735,22.056438 105.036156,20.879814 
	C105.967049,21.360544 106.897942,21.841274 107.678619,22.861694 
	C107.308250,24.510643 107.088097,25.619898 106.867935,26.729153 
z"/>
<path fill="#75C1DA" opacity="1.000000" stroke="none" 
	d="
M107.933472,73.053787 
	C108.495224,71.801750 109.056969,70.549706 109.844177,69.128937 
	C110.643501,70.051735 111.217346,71.143272 111.905716,72.817932 
	C112.009735,73.580963 111.999229,73.760880 111.588913,73.956482 
	C110.121483,73.974609 109.053848,73.977058 107.984253,73.747437 
	C107.982285,73.515366 107.933472,73.053787 107.933472,73.053787 
z"/>
<path fill="#98D1E4" opacity="1.000000" stroke="none" 
	d="
M107.265305,26.816620 
	C107.088097,25.619898 107.308250,24.510643 107.789261,23.174906 
	C108.918358,24.245228 109.786606,25.542028 110.368004,26.974041 
	C109.274986,27.040865 108.468834,26.972477 107.265305,26.816620 
z"/>
<path fill="#98D1E4" opacity="1.000000" stroke="none" 
	d="
M104.901070,20.573692 
	C104.689735,22.056438 104.343315,23.233067 103.951828,24.785368 
	C103.035233,25.767643 102.163704,26.374245 100.947952,26.996965 
	C101.371826,25.554811 102.139908,24.096539 102.893814,22.288570 
	C103.508415,21.381771 104.137199,20.824673 104.901070,20.573692 
z"/>
<path fill="#98D1E4" opacity="1.000000" stroke="none" 
	d="
M111.988716,73.940796 
	C111.999229,73.760880 112.009735,73.580963 112.026947,73.130707 
	C113.025528,73.307701 114.017395,73.755043 115.045013,74.575432 
	C114.063805,75.221230 113.046852,75.493996 111.999924,75.188324 
	C111.976196,74.386848 111.982452,74.163826 111.988716,73.940796 
z"/>
<path fill="#45ABCD" opacity="1.000000" stroke="none" 
	d="
M113.386772,118.991287 
	C113.809219,118.098297 114.523178,117.081963 115.572357,116.003349 
	C115.164482,116.916702 114.421387,117.892326 113.386772,118.991287 
z"/>
<path fill="#A6D7E7" opacity="1.000000" stroke="none" 
	d="
M112.992142,31.666496 
	C112.695511,32.053562 112.325310,32.198421 111.955101,32.343277 
	C111.881989,31.964312 111.808876,31.585344 111.906616,31.056953 
	C112.357826,31.079781 112.638191,31.252035 112.992142,31.666496 
z"/>
<path fill="#80C6DD" opacity="1.000000" stroke="none" 
	d="
M110.983192,29.673878 
	C110.536819,29.444155 110.001022,28.937765 109.654297,28.229887 
	C110.193504,28.484669 110.543640,28.940939 110.983192,29.673878 
z"/>
<path fill="#45ABCD" opacity="1.000000" stroke="none" 
	d="
M111.357910,120.085205 
	C111.030441,119.939774 111.018600,119.751999 110.997055,119.282181 
	C111.456703,119.002975 111.926056,119.005829 112.746658,119.046371 
	C112.623116,119.403648 112.148331,119.723251 111.357910,120.085205 
z"/>
<path fill="#000000" opacity="1.000000" stroke="none" 
	d="
M294.814911,86.273254 
	C298.739441,82.016907 300.064606,81.825905 303.495636,86.080528 
	C306.153992,89.376976 308.981995,87.705116 311.539276,86.759872 
	C323.604462,82.300293 329.998260,86.753891 329.992584,99.852051 
	C329.989471,107.000809 329.821686,114.155708 330.070709,121.295891 
	C330.207672,125.222404 328.272888,126.935539 324.872955,126.893181 
	C321.358246,126.849396 321.044098,124.118828 320.970917,121.207253 
	C320.793060,114.129913 320.396362,107.057701 320.054535,99.985031 
	C319.868469,96.135246 317.363892,95.666420 314.227692,95.988960 
	C309.528809,96.472237 304.038208,102.274773 304.008789,106.955719 
	C303.977417,111.943130 304.337708,116.967094 303.813599,121.899292 
	C303.623535,123.687553 301.645111,126.103790 299.970245,126.643669 
	C298.747406,127.037842 296.685699,124.829460 294.976990,122.924469 
	C294.909027,110.136230 294.861969,98.204742 294.814911,86.273254 
z"/>
<path fill="#7DC4DC" opacity="1.000000" stroke="none" 
	d="
M294.572754,86.582245 
	C294.861969,98.204742 294.909027,110.136230 294.901428,122.537804 
	C294.569000,119.422470 294.071014,115.837883 294.057526,112.251465 
	C294.025696,103.798515 294.224884,95.344704 294.572754,86.582245 
z"/>
<path fill="#000000" opacity="1.000000" stroke="none" 
	d="
M188.865692,92.009773 
	C185.386536,92.193771 182.562134,91.079803 183.257065,87.813431 
	C183.718338,85.645485 186.425430,82.359894 188.141571,82.351021 
	C193.469940,82.323479 192.946381,79.238518 193.041733,75.781517 
	C193.218796,69.362488 193.351105,62.909321 194.200653,56.563892 
	C194.425186,54.886784 197.200882,53.551239 198.805145,52.058853 
	C200.199112,53.812546 202.657761,55.486828 202.795547,57.334213 
	C203.289383,63.955154 203.056335,70.635414 202.975021,77.291733 
	C202.940674,80.102737 203.267532,81.880791 206.874374,82.223915 
	C208.846619,82.411545 210.618088,84.709747 212.480087,86.056168 
	C210.970062,87.689758 209.644531,89.573120 207.886810,90.871330 
	C206.663788,91.774620 204.847305,91.874374 203.002487,92.419853 
	C203.002487,100.712082 203.051163,109.017357 202.963348,117.321198 
	C202.944748,119.080734 202.336609,120.825882 202.159683,122.593636 
	C201.815323,126.034538 199.317657,127.045143 196.600586,126.877586 
	C193.495117,126.686066 192.939026,124.198219 192.969421,121.422028 
	C193.056915,113.434143 193.226974,105.433167 192.827469,97.464264 
	C192.733688,95.593361 190.520905,93.828697 188.865692,92.009773 
z"/>
<path fill="#000000" opacity="1.000000" stroke="none" 
	d="
M244.468811,117.762756 
	C246.414719,117.137558 248.033463,116.134430 249.479172,116.341209 
	C251.338211,116.607094 253.684280,117.429703 254.602814,118.818123 
	C255.150589,119.646111 253.827011,122.645004 252.548080,123.590790 
	C246.242004,128.254272 234.905014,128.305496 228.376038,123.662056 
	C221.071655,118.467133 218.851212,110.418877 220.265594,101.750038 
	C221.877731,91.869255 227.133057,84.865730 237.899658,83.554436 
	C250.100510,82.068451 259.077972,91.711296 257.982513,103.549515 
	C257.672150,106.903816 251.231140,108.789375 246.770187,108.956161 
	C242.373734,109.120529 237.962555,108.899170 233.567108,109.076645 
	C232.415451,109.123146 230.681015,109.767914 230.338135,110.600685 
	C229.992706,111.439659 230.832977,113.002449 231.522141,113.991356 
	C234.657333,118.490189 239.348938,118.304283 244.468811,117.762756 
M238.450073,101.997452 
	C241.614624,101.599030 244.779175,101.200607 247.905899,100.806953 
	C247.448669,95.316742 243.251297,91.614151 238.534973,92.006546 
	C234.828995,92.314873 229.738754,96.292274 230.059723,98.963783 
	C230.688858,104.200294 234.960693,101.133369 238.450073,101.997452 
z"/>
<path fill="#000000" opacity="1.000000" stroke="none" 
	d="
M137.704803,120.212555 
	C130.210968,110.935768 132.665207,95.763786 140.201248,89.144302 
	C145.126511,84.818054 150.742996,86.518066 156.160736,85.964012 
	C158.522751,85.722458 161.056854,85.395241 163.116272,84.335976 
	C167.247742,82.210960 169.685333,82.968803 171.156082,87.597664 
	C171.592148,88.970055 171.956116,90.435722 171.966766,91.861534 
	C172.037613,101.339668 172.043442,110.818817 171.988770,120.297165 
	C171.955612,126.046745 169.053497,127.787323 163.698242,126.020782 
	C161.162827,125.184425 158.078781,124.745682 155.556534,125.377419 
	C148.594696,127.121155 143.038544,124.956696 137.704803,120.212555 
M150.770691,116.015701 
	C159.735977,115.930115 161.998322,113.730553 161.996536,105.101288 
	C161.996323,104.101768 162.328445,102.937454 161.930740,102.134857 
	C160.901596,100.058067 160.014633,97.359863 158.241211,96.306038 
	C152.898849,93.131424 144.707932,95.812202 142.584885,100.903297 
	C139.828857,107.512329 142.733032,113.487587 150.770691,116.015701 
z"/>
<path fill="#000000" opacity="1.000000" stroke="none" 
	d="
M270.998230,99.054535 
	C270.999664,96.406296 270.927979,94.245399 271.020447,92.091545 
	C271.143860,89.216537 271.510925,85.711029 275.198883,86.267059 
	C277.309692,86.585297 280.600403,89.346008 280.686737,91.135979 
	C281.197693,101.730988 281.104858,112.370636 280.699036,122.975517 
	C280.645752,124.368233 277.766754,126.412056 275.959137,126.708900 
	C274.772644,126.903748 272.244720,124.700890 271.918304,123.219170 
	C271.117889,119.586113 271.139008,115.751953 271.026550,111.992813 
	C270.902527,107.846970 270.998230,103.694565 270.998230,99.054535 
z"/>
<path fill="#000000" opacity="1.000000" stroke="none" 
	d="
M276.212921,76.338272 
	C272.652832,76.844513 269.935089,76.321037 270.030579,72.184212 
	C270.114166,68.562851 273.951691,64.501060 276.916046,65.167702 
	C278.351166,65.490448 280.341766,66.656181 280.663025,67.828697 
	C281.123749,69.510445 280.644409,71.709877 279.884369,73.377419 
	C279.348877,74.552338 277.680237,75.210754 276.212921,76.338272 
z"/>
<path fill="#289EC6" opacity="1.000000" stroke="none" 
	d="
M12.509134,93.078888 
	C12.107811,89.982155 12.047212,86.947525 11.955415,83.459236 
	C12.069098,82.748558 12.171636,82.475632 12.688295,82.060806 
	C13.764582,82.291290 14.384402,82.647758 15.051428,83.331528 
	C16.811037,88.254517 19.111517,82.669647 21.010223,84.404221 
	C21.024776,87.531929 21.041624,90.255844 21.058472,92.979767 
	C19.568871,94.050797 18.079269,95.121819 15.613113,96.894997 
	C14.964652,96.014030 13.907254,94.577507 12.509134,93.078888 
z"/>
<path fill="#289EC6" opacity="1.000000" stroke="none" 
	d="
M28.134905,87.933510 
	C28.715363,94.985664 29.295822,102.037811 29.800549,109.554596 
	C28.857250,109.564926 27.989685,109.110634 27.053871,108.012314 
	C25.985394,106.913391 24.985165,106.458496 23.984936,106.003601 
	C23.658485,105.224869 23.332039,104.446136 23.360943,103.249214 
	C26.521421,99.506744 27.542971,95.963539 25.051384,91.622604 
	C26.082100,90.148895 27.108501,89.041206 28.134905,87.933510 
z"/>
<path fill="#44ABCD" opacity="1.000000" stroke="none" 
	d="
M28.213085,87.635185 
	C27.108501,89.041206 26.082100,90.148895 24.855450,91.858459 
	C23.774338,92.967857 22.893475,93.475380 22.012608,93.982903 
	C21.723831,93.843254 21.481663,93.646317 21.172287,93.185921 
	C21.041624,90.255844 21.024776,87.531929 21.260715,84.404083 
	C21.680597,83.999390 21.847691,83.998619 22.331371,83.992126 
	C23.259644,83.031075 23.871325,82.075752 24.798107,80.628319 
	C24.590113,80.565376 25.321304,80.786652 26.287872,81.261436 
	C27.400030,82.700455 28.276812,83.885956 29.153591,85.071465 
	C28.866146,85.826599 28.578705,86.581726 28.213085,87.635185 
z"/>
<path fill="#31A2C8" opacity="1.000000" stroke="none" 
	d="
M22.006157,94.411011 
	C22.893475,93.475380 23.774338,92.967857 24.851135,92.224472 
	C27.542971,95.963539 26.521421,99.506744 23.357357,102.916367 
	C22.665516,100.280846 22.332611,97.559990 22.006157,94.411011 
z"/>
<path fill="#31A2C8" opacity="1.000000" stroke="none" 
	d="
M24.143200,106.281075 
	C24.985165,106.458496 25.985394,106.913391 26.990284,107.698792 
	C26.097118,107.539047 25.199293,107.048798 24.143200,106.281075 
z"/>
<path fill="#259DC5" opacity="1.000000" stroke="none" 
	d="
M39.418941,106.943558 
	C39.037094,86.653084 39.034565,66.300812 39.391365,45.389229 
	C43.500866,43.552868 47.251045,42.275822 51.000507,41.411095 
	C50.046932,45.119267 49.381405,48.535641 48.063232,51.678265 
	C46.645645,55.057892 46.618084,57.255531 50.682228,58.486778 
	C52.522392,59.044273 54.099117,60.471336 56.477070,61.918900 
	C53.590992,62.857475 51.795918,63.441250 49.655991,63.972443 
	C48.070637,63.716114 46.830139,63.512375 44.262867,63.090721 
	C46.852345,66.217773 48.414757,68.104546 49.622215,70.054245 
	C46.153755,73.169830 46.442451,75.090263 50.328911,76.930305 
	C54.673588,78.987289 59.033463,81.012177 62.795715,82.774223 
	C61.513588,84.484734 60.259102,86.158371 58.684662,87.904938 
	C57.929718,88.021843 57.494736,88.065804 56.840027,87.833855 
	C54.633522,86.759132 52.646748,85.960327 50.659977,85.161514 
	C50.217194,85.760620 49.774414,86.359718 49.331635,86.958824 
	C51.831520,89.303696 54.331409,91.648560 56.900101,94.434174 
	C57.107998,103.532005 55.891682,103.015930 65.134064,103.005981 
	C66.757751,103.004227 68.381561,103.111160 69.919449,103.490143 
	C65.905182,106.546600 68.567406,110.483955 67.669319,113.901596 
	C66.882462,113.926781 66.430649,113.882881 65.829575,113.658684 
	C65.441856,113.267082 65.168480,113.121208 64.469681,113.044754 
	C61.663853,113.697540 59.248528,114.346329 56.833199,114.995117 
	C54.201241,113.239037 50.839283,112.009163 49.106339,109.605057 
	C46.425484,105.885902 43.591702,105.430344 39.418941,106.943558 
z"/>
<path fill="#000000" opacity="1.000000" stroke="none" 
	d="
M65.978836,113.838989 
	C66.430649,113.882881 66.882462,113.926781 68.126732,113.968994 
	C71.407372,113.974998 73.906693,114.139725 76.381851,113.963989 
	C89.099174,113.061020 100.119286,106.550034 97.799179,90.642288 
	C95.825623,84.318268 92.640350,79.574646 85.679688,77.998428 
	C82.657112,77.179489 79.989792,76.127670 77.271172,75.972023 
	C72.446915,75.695831 67.588509,76.078606 62.750530,75.951668 
	C60.548153,75.893890 57.229652,77.234360 57.119701,73.116920 
	C57.010403,69.024109 60.241291,70.097763 62.532120,70.024689 
	C67.021912,69.881462 71.516449,69.886902 76.420181,69.908203 
	C80.813324,70.649361 84.795311,71.313118 88.946579,72.319473 
	C91.379417,73.451294 93.642967,74.240532 96.031296,75.346222 
	C98.675514,79.113686 101.194969,82.564720 103.714417,86.015755 
	C104.156738,88.391434 104.599060,90.767105 105.040359,93.885048 
	C105.076881,95.083961 105.114418,95.540611 105.074928,96.303986 
	C104.979523,97.031960 104.961136,97.453217 104.695023,97.974670 
	C104.349350,98.384857 104.251411,98.694855 104.077255,99.369415 
	C103.948662,100.476547 103.896278,101.219116 103.843895,101.961685 
	C103.555756,102.737389 103.267624,103.513084 102.921326,104.621811 
	C101.649002,106.417664 100.434822,107.880493 99.195419,109.670326 
	C92.981255,115.175392 86.130524,118.788528 77.425606,119.091003 
	C73.950829,119.455139 70.897873,119.742912 67.423996,120.098526 
	C63.953003,120.166374 60.902935,120.166374 57.360661,120.166374 
	C57.215015,118.554985 57.093525,117.210831 56.902618,115.430893 
	C59.248528,114.346329 61.663853,113.697540 64.571930,113.286865 
	C65.369408,113.629646 65.674118,113.734322 65.978836,113.838989 
z"/>
<path fill="#000000" opacity="1.000000" stroke="none" 
	d="
M56.833759,26.999332 
	C58.164139,26.333143 59.433239,25.361935 60.840652,25.079191 
	C62.539841,24.737833 64.356293,24.980185 66.905479,24.967297 
	C69.131134,24.932076 70.573303,24.899448 72.015465,24.866823 
	C74.735214,25.223032 77.454956,25.579241 80.904274,25.976942 
	C82.780510,26.056505 83.927177,26.094574 85.073845,26.132643 
	C85.073845,26.132643 85.509048,26.046387 85.854813,26.365829 
	C86.785149,26.840082 87.369705,26.994892 87.954269,27.149702 
	C94.256729,30.943150 99.265282,35.766983 100.920036,44.080196 
	C100.959648,46.212467 100.916489,47.592041 100.553497,49.163071 
	C98.240326,52.942188 96.246986,56.529854 93.854828,60.107857 
	C91.915688,60.080303 90.375389,60.062408 88.913513,59.675079 
	C94.511497,53.455723 95.646011,47.011654 92.138138,40.607204 
	C89.420532,36.256756 86.465797,32.735817 80.868835,32.559715 
	C79.535866,31.789660 78.382851,31.031677 77.218636,31.014053 
	C72.484039,30.942379 67.746017,31.097723 62.602886,31.097155 
	C59.251453,31.225019 56.614349,31.014845 56.833759,26.999332 
z"/>
<path fill="#3EA8CB" opacity="1.000000" stroke="none" 
	d="
M94.253654,60.117516 
	C96.246986,56.529854 98.240326,52.942188 100.828003,48.932846 
	C101.629570,47.341740 101.836784,46.172321 102.043999,45.002899 
	C102.043999,45.002899 102.520020,45.001907 103.136162,45.002266 
	C104.508919,45.003475 105.265526,45.004333 106.022141,45.005188 
	C105.385628,50.548252 104.279663,56.091431 104.281006,61.634338 
	C104.281868,65.208710 105.907127,68.782684 106.879646,72.898224 
	C106.954903,73.439606 106.940628,73.806282 106.629211,73.858200 
	C106.231384,74.908653 106.144958,75.907196 106.058540,76.905731 
	C105.498726,79.852203 104.938911,82.798676 104.046753,85.880447 
	C101.194969,82.564720 98.675514,79.113686 96.046555,74.971428 
	C94.286850,71.275124 92.636642,68.270050 90.738594,64.813644 
	C91.578728,63.691227 92.916191,61.904373 94.253654,60.117516 
z"/>
<path fill="#B3DDEA" opacity="1.000000" stroke="none" 
	d="
M111.846481,48.454369 
	C111.765137,48.811584 111.365891,48.784302 110.940948,48.680622 
	C110.057640,48.314293 109.599274,48.051647 109.140900,47.789001 
	C108.498970,43.426609 107.857048,39.064213 107.036705,34.342060 
	C112.853859,34.022945 115.230949,38.157616 113.115921,44.910168 
	C112.777527,45.990547 112.326691,47.035709 111.846481,48.454369 
z"/>
<path fill="#4AADCF" opacity="1.000000" stroke="none" 
	d="
M71.961517,24.516994 
	C70.573303,24.899448 69.131134,24.932076 67.352722,24.897890 
	C67.008873,23.165365 67.001266,21.499653 66.992462,19.417084 
	C68.630035,20.722542 70.268799,22.444855 71.961517,24.516994 
z"/>
<path fill="#4AADCF" opacity="1.000000" stroke="none" 
	d="
M85.014313,25.769100 
	C83.927177,26.094574 82.780510,26.056505 81.311897,25.937801 
	C80.989952,24.483881 80.989952,23.110596 80.989952,21.737309 
	C81.380745,21.466442 81.771530,21.195576 82.162323,20.924709 
	C83.093147,22.418325 84.023964,23.911942 85.014313,25.769100 
z"/>
<path fill="#4AADCF" opacity="1.000000" stroke="none" 
	d="
M106.253799,45.021751 
	C105.265526,45.004333 104.508919,45.003475 103.374168,45.001923 
	C103.478752,44.129654 103.961472,43.258091 104.444191,42.386528 
	C105.286430,43.080124 106.128677,43.773716 106.958649,44.781738 
	C106.946373,45.096169 106.485466,45.038319 106.253799,45.021751 
z"/>
<path fill="#4AADCF" opacity="1.000000" stroke="none" 
	d="
M109.005623,48.021202 
	C109.599274,48.051647 110.057640,48.314293 110.742928,48.709305 
	C110.616577,49.833740 110.263306,50.825813 109.609772,51.931221 
	C108.909523,51.239582 108.509529,50.434616 108.092140,49.291916 
	C108.339943,48.720589 108.605148,48.486996 109.005623,48.021202 
z"/>
<path fill="#4AADCF" opacity="1.000000" stroke="none" 
	d="
M87.965042,26.807264 
	C87.369705,26.994892 86.785149,26.840082 86.072845,26.406761 
	C86.282196,25.349253 86.619278,24.570251 87.490479,22.556898 
	C87.763397,24.754421 87.869606,25.609623 87.965042,26.807264 
z"/>
<path fill="#4AADCF" opacity="1.000000" stroke="none" 
	d="
M101.933624,44.807884 
	C101.836784,46.172321 101.629570,47.341740 101.147842,48.741386 
	C100.916489,47.592041 100.959648,46.212467 101.082138,44.425957 
	C101.428345,44.165386 101.648941,44.363335 101.933624,44.807884 
z"/>
<path fill="#36A4C9" opacity="1.000000" stroke="none" 
	d="
M102.015221,118.034744 
	C102.277100,119.142838 102.538979,120.250938 102.800858,121.359032 
	C102.304520,121.478050 101.808182,121.597069 101.311844,121.716095 
	C101.052231,120.627380 100.792610,119.538666 101.018066,118.231499 
	C101.673843,118.020279 101.844536,118.027512 102.015221,118.034744 
z"/>
<path fill="#45ABCD" opacity="1.000000" stroke="none" 
	d="
M102.388252,118.027496 
	C101.844536,118.027512 101.673843,118.020279 101.246826,118.006828 
	C101.170723,117.447441 101.350937,116.894272 101.756119,116.147629 
	C102.942642,116.415817 103.904190,116.877480 104.933571,117.677834 
	C104.254700,118.017776 103.507996,118.019020 102.388252,118.027496 
z"/>
<path fill="#45ABCD" opacity="1.000000" stroke="none" 
	d="
M113.996033,85.999901 
	C115.077644,86.324982 116.159264,86.650063 117.596870,86.959045 
	C117.076050,90.392776 116.199234,93.842606 114.915756,97.648926 
	C114.340958,98.005035 114.172806,98.004654 114.002327,98.002136 
	C114.000000,98.000000 113.995430,97.995728 113.943527,97.648300 
	C110.761230,93.504646 111.113777,89.740585 113.996033,85.999901 
z"/>
<path fill="#45ABCD" opacity="1.000000" stroke="none" 
	d="
M109.320129,115.142914 
	C107.678764,112.244995 106.355309,109.490349 105.017761,106.371460 
	C106.603951,106.242691 109.115059,105.941048 109.630966,106.815941 
	C111.083740,109.279625 111.716057,112.227119 112.671814,114.983887 
	C111.660553,115.084648 110.649300,115.185417 109.320129,115.142914 
z"/>
<path fill="#45ABCD" opacity="1.000000" stroke="none" 
	d="
M104.942749,97.874474 
	C104.961136,97.453217 104.979523,97.031960 105.436172,96.373260 
	C108.581436,96.755783 111.288437,97.375755 113.995430,97.995728 
	C113.995430,97.995728 114.000000,98.000000 114.058907,98.310867 
	C114.740913,99.085220 115.364021,99.548698 115.987137,100.012169 
	C115.988197,100.756622 115.989265,101.501068 115.681885,102.679352 
	C114.914665,103.741417 114.455902,104.369659 113.997131,104.997902 
	C111.255096,103.002312 108.513062,101.006714 105.385635,99.005676 
	C105.000237,99.000237 104.998337,98.998344 104.993599,98.716919 
	C104.973480,98.248489 104.958107,98.061478 104.942749,97.874474 
z"/>
<path fill="#45ABCD" opacity="1.000000" stroke="none" 
	d="
M108.877487,118.739510 
	C108.203316,118.464874 107.398117,117.927284 106.794434,117.172897 
	C107.579453,117.462929 108.162956,117.969734 108.877487,118.739510 
z"/>
<path fill="#3CA7CB" opacity="1.000000" stroke="none" 
	d="
M114.307892,104.940201 
	C114.455902,104.369659 114.914665,103.741417 115.681854,103.051575 
	C115.533058,103.620811 115.075851,104.251656 114.307892,104.940201 
z"/>
<path fill="#3CA7CB" opacity="1.000000" stroke="none" 
	d="
M115.958763,99.720749 
	C115.364021,99.548698 114.740913,99.085220 114.061234,98.313004 
	C114.172806,98.004654 114.340958,98.005035 114.761475,98.004593 
	C115.319374,98.478958 115.624886,98.954147 115.958763,99.720749 
z"/>
<path fill="#45ABCD" opacity="1.000000" stroke="none" 
	d="
M104.121536,101.770050 
	C103.896278,101.219116 103.948662,100.476547 104.288132,99.366524 
	C104.575218,98.999069 104.998337,98.998344 104.998337,98.998344 
	C104.998337,98.998344 105.000237,99.000237 105.003242,99.003227 
	C104.803894,99.863617 104.601532,100.721024 104.121536,101.770050 
z"/>
<path fill="#44ABCD" opacity="1.000000" stroke="none" 
	d="
M29.830818,42.981087 
	C29.826477,43.440758 29.822134,43.900436 29.370567,44.704201 
	C26.575354,44.710339 24.227360,44.372395 21.696659,44.081951 
	C21.513948,44.129456 21.149431,44.227879 21.007996,43.931870 
	C19.851706,41.140591 18.836851,38.645321 17.868233,35.854565 
	C17.941793,35.361572 17.969118,35.164062 17.996443,34.966557 
	C18.167473,34.963207 18.338505,34.959858 18.944828,35.196388 
	C19.919426,35.624992 20.458731,35.813713 20.998035,36.002434 
	C21.810247,37.233887 22.622459,38.465343 23.794907,40.190025 
	C26.047033,41.449196 27.938925,42.215141 29.830818,42.981087 
z"/>
<path fill="#36A4C9" opacity="1.000000" stroke="none" 
	d="
M29.902000,42.536640 
	C27.938925,42.215141 26.047033,41.449196 24.072422,40.347183 
	C24.611637,39.086220 25.935102,37.960255 25.737354,37.270279 
	C24.737219,33.780666 26.897692,33.960747 29.475193,33.993385 
	C29.895365,36.689823 29.934275,39.391006 29.902000,42.536640 
z"/>
<path fill="#40A9CC" opacity="1.000000" stroke="none" 
	d="
M17.753056,34.736782 
	C17.969118,35.164062 17.941793,35.361572 17.557978,35.848915 
	C16.197254,36.434742 15.193020,36.730736 14.188786,37.026730 
	C14.044974,35.705944 13.901164,34.385159 13.661175,32.681068 
	C16.449478,30.231627 16.913795,32.486767 17.753056,34.736782 
z"/>
<path fill="#38A5CA" opacity="1.000000" stroke="none" 
	d="
M13.511656,17.921703 
	C12.842863,17.221092 12.478192,16.431072 12.151340,15.310432 
	C13.939981,15.241428 16.144709,15.244208 13.511656,17.921703 
z"/>
<path fill="#40A9CC" opacity="1.000000" stroke="none" 
	d="
M13.020176,28.910416 
	C12.560867,28.558313 12.329177,28.050276 12.137981,27.258106 
	C12.534916,27.567474 12.891356,28.160978 13.020176,28.910416 
z"/>
<path fill="#36A4C9" opacity="1.000000" stroke="none" 
	d="
M20.972816,35.753860 
	C20.458731,35.813713 19.919426,35.624992 19.201225,35.206486 
	C19.664085,35.152897 20.305841,35.329094 20.972816,35.753860 
z"/>
<path fill="#2FA1C8" opacity="1.000000" stroke="none" 
	d="
M56.484604,27.058048 
	C56.614349,31.014845 59.251453,31.225019 62.558338,31.398003 
	C62.910545,32.857471 62.900936,33.943874 63.080563,35.320419 
	C65.588699,37.075748 67.907600,38.540943 70.102631,40.389126 
	C68.711975,41.487263 67.496857,42.672695 66.167519,42.818787 
	C63.473404,43.114868 60.717426,42.848076 57.922031,42.441605 
	C56.834412,40.086880 55.811714,38.103893 54.789013,36.120903 
	C53.525604,37.747658 52.262192,39.374409 50.999390,41.000580 
	C51.000000,41.000000 51.001221,40.998779 51.001221,40.998779 
	C47.251045,42.275822 43.500866,43.552868 39.400230,44.921478 
	C39.036205,40.654377 39.022640,36.295712 39.016029,31.473507 
	C40.405010,31.007284 41.787041,31.004601 43.639496,31.352316 
	C45.772915,32.705910 47.435913,33.709103 49.098907,34.712296 
	C50.066040,32.474998 51.033173,30.237698 52.000305,28.000401 
	C52.000305,28.000401 52.000000,28.000000 52.000229,28.000153 
	C53.378788,27.705791 54.757118,27.411278 56.484604,27.058048 
z"/>
<path fill="#31A2C8" opacity="1.000000" stroke="none" 
	d="
M51.701759,28.161798 
	C51.033173,30.237698 50.066040,32.474998 49.098907,34.712296 
	C47.435913,33.709103 45.772915,32.705910 44.054684,31.353230 
	C46.467369,30.110229 48.935295,29.216713 51.701759,28.161798 
z"/>
<path fill="#3CA7CB" opacity="1.000000" stroke="none" 
	d="
M113.943527,97.648300 
	C111.288437,97.375755 108.581436,96.755783 105.513199,96.066536 
	C105.114418,95.540611 105.076881,95.083961 105.111679,94.289253 
	C106.776779,90.189125 108.330040,86.409584 109.981537,82.673477 
	C110.652779,81.154961 111.537636,79.730873 112.325302,78.263824 
	C112.776649,78.359993 113.228004,78.456161 113.679352,78.552330 
	C113.788239,80.748940 113.897133,82.945541 114.001022,85.571030 
	C111.113777,89.740585 110.761230,93.504646 113.943527,97.648300 
z"/>
<path fill="#A6D7E7" opacity="1.000000" stroke="none" 
	d="
M106.416992,76.922058 
	C106.144958,75.907196 106.231384,74.908653 106.885208,73.936295 
	C107.630486,73.968155 107.808357,73.973831 107.986221,73.979507 
	C109.053848,73.977058 110.121483,73.974609 111.588913,73.956482 
	C111.982452,74.163826 111.976196,74.386848 111.945999,74.946579 
	C110.206520,75.834969 108.490974,76.386673 106.416992,76.922058 
z"/>
<path fill="#2CA0C7" opacity="1.000000" stroke="none" 
	d="
M14.164812,37.353745 
	C15.193020,36.730736 16.197254,36.434742 17.511742,36.144402 
	C18.836851,38.645321 19.851706,41.140591 20.974579,44.363075 
	C21.331263,49.746056 21.579926,54.401821 21.460636,59.116631 
	C20.395121,62.450451 19.697559,65.725227 18.842468,69.335678 
	C19.111397,71.455132 19.537857,73.238914 19.972229,75.416321 
	C20.004637,76.859512 20.029131,77.909088 20.020205,79.218140 
	C19.970091,79.651237 19.953398,79.824852 19.570646,80.001404 
	C17.804468,81.004303 16.404346,82.004257 15.004224,83.004227 
	C14.384402,82.647758 13.764582,82.291290 12.779068,81.861176 
	C12.506110,81.077026 12.598848,80.366539 13.001351,79.298706 
	C13.575575,78.806229 13.840034,78.671089 14.104492,78.535957 
	C13.707826,78.363579 13.311160,78.191193 12.914495,78.018806 
	C13.245226,72.298264 13.575956,66.577721 14.343006,60.324524 
	C15.631948,57.123837 16.501078,54.460342 17.243635,51.762012 
	C17.262524,51.693375 15.890241,51.241898 15.166763,50.968971 
	C15.107622,50.538849 15.048482,50.108727 14.964878,49.354092 
	C15.832473,45.750202 18.222509,42.476387 14.670840,39.077084 
	C14.290077,38.541935 14.215458,38.111347 14.164812,37.353745 
z"/>
<path fill="#40A9CC" opacity="1.000000" stroke="none" 
	d="
M15.038946,51.361031 
	C15.890241,51.241898 17.262524,51.693375 17.243635,51.762012 
	C16.501078,54.460342 15.631948,57.123837 14.424053,59.900375 
	C14.349563,57.256943 14.630345,54.505016 15.038946,51.361031 
z"/>
<path fill="#40A9CC" opacity="1.000000" stroke="none" 
	d="
M12.854227,78.247894 
	C13.311160,78.191193 13.707826,78.363579 14.104492,78.535957 
	C13.840034,78.671089 13.575575,78.806229 13.066610,78.945633 
	C12.822104,78.949905 12.793961,78.476982 12.854227,78.247894 
z"/>
<path fill="#2CA0C7" opacity="1.000000" stroke="none" 
	d="
M29.469017,84.783371 
	C28.276812,83.885956 27.400030,82.700455 26.277458,80.850418 
	C25.989971,78.817787 25.948275,77.449677 25.938881,75.714783 
	C25.674919,74.234871 25.378654,73.121735 25.077965,71.676010 
	C25.052855,70.900665 25.032169,70.457924 25.034885,69.588272 
	C25.137938,67.460068 25.217588,65.758759 25.623196,63.920269 
	C27.253733,61.531612 28.558311,59.280144 29.862890,57.028675 
	C29.836742,66.184212 29.810593,75.339745 29.469017,84.783371 
z"/>
<path fill="#44ABCD" opacity="1.000000" stroke="none" 
	d="
M29.932556,56.626293 
	C28.558311,59.280144 27.253733,61.531612 25.535679,63.503502 
	C25.057964,61.810104 24.993729,60.396282 24.997402,58.587593 
	C24.984699,54.484104 24.904089,50.775482 25.180294,47.061668 
	C26.978876,47.715485 28.420639,48.374493 29.862400,49.033504 
	C29.862400,49.033504 30.028900,48.962311 30.119312,48.957031 
	C30.145174,49.415325 30.080624,49.878902 29.674980,50.731117 
	C29.509829,51.736835 29.685770,52.353912 29.861710,52.970989 
	C29.908548,54.055298 29.955387,55.139603 29.932556,56.626293 
z"/>
<path fill="#2CA0C7" opacity="1.000000" stroke="none" 
	d="
M29.904659,52.648285 
	C29.685770,52.353912 29.509829,51.736835 29.599829,51.074261 
	C29.893049,51.461037 29.920328,51.893311 29.904659,52.648285 
z"/>
<path fill="#57B3D2" opacity="1.000000" stroke="none" 
	d="
M107.984253,73.747437 
	C107.808357,73.973831 107.630486,73.968155 107.196625,73.884384 
	C106.940628,73.806282 106.954903,73.439606 106.953644,73.256912 
	C106.952377,73.074219 107.443268,73.046989 107.688370,73.050385 
	C107.933472,73.053787 107.982285,73.515366 107.984253,73.747437 
z"/>
<path fill="#2CA0C7" opacity="1.000000" stroke="none" 
	d="
M29.906799,48.634277 
	C28.420639,48.374493 26.978876,47.715485 24.937687,46.868435 
	C23.518627,45.798412 22.698997,44.916428 21.879368,44.034447 
	C24.227360,44.372395 26.575354,44.710339 29.322952,45.046715 
	C29.798775,46.108448 29.874987,47.171745 29.906799,48.634277 
z"/>
<path fill="#028DBC" opacity="1.000000" stroke="none" 
	d="
M237.988007,101.997452 
	C234.960693,101.133369 230.688858,104.200294 230.059723,98.963783 
	C229.738754,96.292274 234.828995,92.314873 238.534973,92.006546 
	C243.251297,91.614151 247.448669,95.316742 247.905899,100.806953 
	C244.779175,101.200607 241.614624,101.599030 237.988007,101.997452 
z"/>
<path fill="#038DBC" opacity="1.000000" stroke="none" 
	d="
M150.354065,116.023331 
	C142.733032,113.487587 139.828857,107.512329 142.584885,100.903297 
	C144.707932,95.812202 152.898849,93.131424 158.241211,96.306038 
	C160.014633,97.359863 160.901596,100.058067 161.930740,102.134857 
	C162.328445,102.937454 161.996323,104.101768 161.996536,105.101288 
	C161.998322,113.730553 159.735977,115.930115 150.354065,116.023331 
M154.218399,100.092201 
	C152.657211,100.462738 150.766846,100.402199 149.601990,101.291733 
	C147.017044,103.265717 145.853195,106.089607 148.119751,108.989418 
	C150.355057,111.849243 153.567505,111.774979 155.816513,109.388687 
	C158.546188,106.492371 156.975784,103.291893 154.218399,100.092201 
z"/>
<path fill="#36A4C9" opacity="1.000000" stroke="none" 
	d="
M15.051430,83.331528 
	C16.404346,82.004257 17.804468,81.004303 19.811455,80.010582 
	C20.418322,80.016823 20.898863,80.022072 20.908855,80.372345 
	C21.284161,81.814362 21.649471,82.906105 22.014782,83.997856 
	C21.847691,83.998619 21.680597,83.999390 21.263008,84.000305 
	C19.111517,82.669647 16.811037,88.254517 15.051430,83.331528 
z"/>
<path fill="#65BAD6" opacity="1.000000" stroke="none" 
	d="
M22.331371,83.992126 
	C21.649471,82.906105 21.284161,81.814362 21.054451,80.230125 
	C20.811245,79.477982 20.432436,79.218323 20.053627,78.958664 
	C20.029131,77.909088 20.004637,76.859512 20.114517,75.125015 
	C20.499119,73.625633 20.749342,72.811172 21.338230,71.924156 
	C22.144634,70.878212 22.612371,69.904831 23.318657,69.072166 
	C24.041962,69.480316 24.526724,69.747742 25.011486,70.015175 
	C25.032169,70.457924 25.052855,70.900665 24.818668,71.896423 
	C25.011389,73.660141 25.458984,74.870850 25.906578,76.081566 
	C25.948275,77.449677 25.989971,78.817787 26.042082,80.596909 
	C25.321304,80.786652 24.590113,80.565376 24.798107,80.628319 
	C23.871325,82.075752 23.259644,83.031075 22.331371,83.992126 
z"/>
<path fill="#2FA1C8" opacity="1.000000" stroke="none" 
	d="
M76.009018,69.830811 
	C71.516449,69.886902 67.021912,69.881462 62.532120,70.024689 
	C60.241291,70.097763 57.010403,69.024109 57.119701,73.116920 
	C57.229652,77.234360 60.548153,75.893890 62.750530,75.951668 
	C67.588509,76.078606 72.446915,75.695831 77.271172,75.972023 
	C79.989792,76.127670 82.657112,77.179489 85.676117,78.410629 
	C85.491516,81.396919 85.117859,83.840927 84.430801,86.193398 
	C83.516258,89.324753 85.522377,91.049774 87.579575,89.751976 
	C91.742920,87.125473 94.610069,89.244484 97.844597,91.003906 
	C100.119286,106.550034 89.099174,113.061020 76.381851,113.963989 
	C73.906693,114.139725 71.407372,113.974998 68.461777,113.899918 
	C68.567406,110.483955 65.905182,106.546600 70.297142,103.421509 
	C71.984726,102.633339 73.265373,102.357048 74.422012,101.815765 
	C77.715034,100.274658 80.578453,98.016724 79.843018,94.028641 
	C79.043564,89.693344 75.440918,88.232025 71.420837,88.038765 
	C67.288338,87.840103 63.143856,87.890564 59.004620,87.832001 
	C60.259102,86.158371 61.513588,84.484734 62.795715,82.774223 
	C59.033463,81.012177 54.673588,78.987289 50.328911,76.930305 
	C46.442451,75.090263 46.153755,73.169830 49.851437,70.215645 
	C51.544006,69.963524 52.652401,69.612930 54.125275,69.147049 
	C52.452869,67.070137 51.226860,65.547577 50.000847,64.025024 
	C51.795918,63.441250 53.590992,62.857475 56.477070,61.918900 
	C54.099117,60.471336 52.522392,59.044273 50.682228,58.486778 
	C46.618084,57.255531 46.645645,55.057892 48.063232,51.678265 
	C49.381405,48.535641 50.046932,45.119267 51.000507,41.411095 
	C51.001221,40.998779 51.000000,41.000000 51.341415,41.044769 
	C53.150471,41.737461 54.618111,42.385380 56.132950,43.291813 
	C56.459377,43.754719 56.738613,43.959114 57.009575,44.615120 
	C57.001457,45.884090 56.977291,46.702309 57.006077,47.518661 
	C57.114986,50.607052 56.092274,54.803741 57.693027,56.462090 
	C59.207500,58.031048 63.482910,56.930031 66.543648,57.016357 
	C67.031319,57.030109 67.517052,57.112392 68.007263,57.553726 
	C68.979080,58.962341 69.933052,59.994282 70.919052,60.994667 
	C72.251831,62.346882 73.912735,63.492016 74.862854,65.069351 
	C75.666069,66.402809 75.658020,68.224953 76.009018,69.830811 
z"/>
<path fill="#000000" opacity="1.000000" stroke="none" 
	d="
M58.684662,87.904938 
	C63.143856,87.890564 67.288338,87.840103 71.420837,88.038765 
	C75.440918,88.232025 79.043564,89.693344 79.843018,94.028641 
	C80.578453,98.016724 77.715034,100.274658 74.422012,101.815765 
	C73.265373,102.357048 71.984726,102.633339 70.383011,103.099258 
	C68.381561,103.111160 66.757751,103.004227 65.134064,103.005981 
	C55.891682,103.015930 57.107998,103.532005 56.970047,94.018745 
	C57.000717,91.478310 57.030235,89.794037 57.059753,88.109772 
	C57.494736,88.065804 57.929718,88.021843 58.684662,87.904938 
z"/>
<path fill="#31A2C8" opacity="1.000000" stroke="none" 
	d="
M56.840027,87.833862 
	C57.030235,89.794037 57.000717,91.478310 56.901249,93.578003 
	C54.331409,91.648560 51.831520,89.303696 49.331635,86.958824 
	C49.774414,86.359718 50.217194,85.760620 50.659977,85.161514 
	C52.646748,85.960327 54.633522,86.759132 56.840027,87.833862 
z"/>
<path fill="#3EA8CC" opacity="1.000000" stroke="none" 
	d="
M49.655991,63.972443 
	C51.226860,65.547577 52.452869,67.070137 54.125275,69.147049 
	C52.652401,69.612930 51.544006,69.963524 50.206390,70.152718 
	C48.414757,68.104546 46.852345,66.217773 44.262867,63.090721 
	C46.830139,63.512375 48.070637,63.716114 49.655991,63.972443 
z"/>
<path fill="#2FA1C8" opacity="1.000000" stroke="none" 
	d="
M65.829575,113.658684 
	C65.674118,113.734322 65.369408,113.629646 64.962440,113.282867 
	C65.168480,113.121208 65.441856,113.267082 65.829575,113.658684 
z"/>
<path fill="#3FA8CC" opacity="1.000000" stroke="none" 
	d="
M76.420181,69.908203 
	C75.658020,68.224953 75.666069,66.402809 74.862854,65.069351 
	C73.912735,63.492016 72.251831,62.346882 70.919052,60.994667 
	C69.933052,59.994282 68.979080,58.962341 68.420456,57.485401 
	C76.428772,56.917229 78.765160,53.313046 75.841339,45.815723 
	C75.467758,45.380352 75.190750,45.190811 74.956833,45.013252 
	C74.999924,45.025238 74.976334,45.111526 75.066414,44.759140 
	C74.791077,43.265461 74.425659,42.124172 74.297501,40.788940 
	C75.217491,39.604092 75.900223,38.613182 76.724670,37.416595 
	C77.536362,38.500126 78.091217,39.240803 78.690063,40.040199 
	C79.239532,38.779671 79.624062,37.897549 80.379486,37.071449 
	C84.574509,38.403191 88.398621,39.678909 92.222733,40.954628 
	C95.646011,47.011654 94.511497,53.455723 88.640503,59.948936 
	C88.451805,64.387115 88.614548,68.181999 88.777298,71.976883 
	C84.795311,71.313118 80.813324,70.649361 76.420181,69.908203 
M82.571205,45.833263 
	C83.850883,46.114395 85.130554,46.395527 86.410233,46.676659 
	C86.363541,45.125198 85.460312,43.704056 85.152855,43.822994 
	C83.989510,44.273022 83.019417,45.222584 81.469765,46.406979 
	C80.704971,47.637371 79.940178,48.867767 79.175392,50.098160 
	C79.804893,50.369461 80.434402,50.640762 81.063911,50.912060 
	C81.384697,49.283287 81.705482,47.654514 82.571205,45.833263 
M84.488823,41.541004 
	C84.488823,41.541004 84.460823,41.480350 84.488823,41.541004 
z"/>
<path fill="#42AACD" opacity="1.000000" stroke="none" 
	d="
M97.799179,90.642288 
	C94.610069,89.244484 91.742920,87.125473 87.579575,89.751976 
	C85.522377,91.049774 83.516258,89.324753 84.430801,86.193398 
	C85.117859,83.840927 85.491516,81.396919 86.008255,78.581451 
	C92.640350,79.574646 95.825623,84.318268 97.799179,90.642288 
z"/>
<path fill="#BEE2EF" opacity="1.000000" stroke="none" 
	d="
M88.946579,72.319473 
	C88.614548,68.181999 88.451805,64.387115 88.562073,60.318371 
	C90.375389,60.062408 91.915688,60.080303 93.854828,60.107857 
	C92.916191,61.904373 91.578728,63.691227 90.738594,64.813644 
	C92.636642,68.270050 94.286850,71.275124 95.921791,74.654984 
	C93.642967,74.240532 91.379417,73.451294 88.946579,72.319473 
z"/>
<path fill="#37A5CA" opacity="1.000000" stroke="none" 
	d="
M104.993599,98.716919 
	C104.998337,98.998344 104.575218,98.999069 104.364342,99.001961 
	C104.251411,98.694855 104.349350,98.384857 104.695015,97.974670 
	C104.958107,98.061478 104.973480,98.248489 104.993599,98.716919 
z"/>
<path fill="#3FA8CC" opacity="1.000000" stroke="none" 
	d="
M62.891323,35.030277 
	C62.900936,33.943874 62.910545,32.857471 62.964706,31.470221 
	C67.746017,31.097723 72.484039,30.942379 77.218636,31.014053 
	C78.382851,31.031677 79.535866,31.789660 80.825996,32.883194 
	C80.637222,34.365482 80.316475,35.171856 79.602280,35.959526 
	C73.896111,33.371319 68.452362,33.149868 62.891323,35.030277 
z"/>
<path fill="#57B3D2" opacity="1.000000" stroke="none" 
	d="
M79.995728,35.978233 
	C80.316475,35.171856 80.637222,34.365482 81.000793,33.235626 
	C86.465797,32.735817 89.420532,36.256756 92.138138,40.607204 
	C88.398621,39.678909 84.574509,38.403191 80.376236,36.812065 
	C79.999954,36.323849 79.997849,36.151043 79.995728,35.978233 
z"/>
<path fill="#B0DAEA" opacity="1.000000" stroke="none" 
	d="
M21.696659,44.081951 
	C22.698997,44.916428 23.518627,45.798412 24.580868,46.873627 
	C24.904089,50.775482 24.984699,54.484104 24.659431,58.590096 
	C23.578892,58.959679 22.904230,58.931896 22.124874,58.930855 
	C22.020180,58.957596 21.828590,59.057583 21.828590,59.057583 
	C21.579926,54.401821 21.331263,49.746056 21.116014,44.659088 
	C21.149431,44.227879 21.513948,44.129456 21.696659,44.081951 
z"/>
<path fill="#60B7D5" opacity="1.000000" stroke="none" 
	d="
M79.602280,35.959526 
	C79.997849,36.151043 79.999954,36.323849 80.005325,36.756042 
	C79.624062,37.897549 79.239532,38.779671 78.690063,40.040199 
	C78.091217,39.240803 77.536362,38.500126 76.724670,37.416595 
	C75.900223,38.613182 75.217491,39.604092 74.062424,40.924545 
	C73.051857,41.210949 72.465828,41.287033 71.987190,41.095184 
	C71.356171,40.842258 70.809456,40.378979 70.226501,40.006134 
	C67.907600,38.540943 65.588699,37.075748 63.080563,35.320419 
	C68.452362,33.149868 73.896111,33.371319 79.602280,35.959526 
z"/>
<path fill="#259DC5" opacity="1.000000" stroke="none" 
	d="
M56.085754,43.033302 
	C54.618111,42.385380 53.150471,41.737461 51.340805,41.045349 
	C52.262192,39.374409 53.525604,37.747658 54.789013,36.120903 
	C55.811714,38.103893 56.834412,40.086880 57.607529,42.496799 
	C56.933884,42.960251 56.509819,42.996777 56.085754,43.033302 
z"/>
<path fill="#BEE2EF" opacity="1.000000" stroke="none" 
	d="
M56.132950,43.291809 
	C56.509819,42.996777 56.933884,42.960251 57.672451,42.868534 
	C60.717426,42.848076 63.473404,43.114868 66.167519,42.818787 
	C67.496857,42.672695 68.711975,41.487263 70.102631,40.389126 
	C70.809456,40.378979 71.356171,40.842258 71.987190,41.095184 
	C72.465828,41.287033 73.051857,41.210949 73.825172,41.118484 
	C74.425659,42.124172 74.791077,43.265461 74.640289,44.710564 
	C68.422005,44.730751 62.719925,44.447128 57.017845,44.163509 
	C56.738613,43.959114 56.459377,43.754719 56.132950,43.291809 
z"/>
<path fill="#40A9CC" opacity="1.000000" stroke="none" 
	d="
M23.080111,68.931450 
	C22.612371,69.904831 22.144634,70.878212 21.328899,71.578079 
	C20.320601,70.536377 19.660299,69.768188 19.000000,69.000000 
	C19.697559,65.725227 20.395121,62.450451 21.460636,59.116631 
	C21.828590,59.057583 22.020180,58.957596 22.041367,59.368912 
	C22.401737,62.830639 22.740923,65.881042 23.080111,68.931450 
z"/>
<path fill="#4AADCF" opacity="1.000000" stroke="none" 
	d="
M18.842468,69.335678 
	C19.660299,69.768188 20.320601,70.536377 20.990234,71.650642 
	C20.749342,72.811172 20.499119,73.625633 20.106606,74.731392 
	C19.537857,73.238914 19.111397,71.455132 18.842468,69.335678 
z"/>
<path fill="#4AADCF" opacity="1.000000" stroke="none" 
	d="
M20.020206,79.218140 
	C20.432436,79.218323 20.811245,79.477982 21.044458,79.879852 
	C20.898863,80.022072 20.418322,80.016823 20.177513,80.007645 
	C19.953398,79.824852 19.970091,79.651237 20.020206,79.218140 
z"/>
<path fill="#9DD3E5" opacity="1.000000" stroke="none" 
	d="
M23.318657,69.072166 
	C22.740923,65.881042 22.401737,62.830639 22.146061,59.342171 
	C22.904230,58.931896 23.578892,58.959679 24.591522,58.984962 
	C24.993729,60.396282 25.057964,61.810104 25.209721,63.640694 
	C25.217588,65.758759 25.137938,67.460068 25.034885,69.588272 
	C24.526724,69.747742 24.041962,69.480316 23.318657,69.072166 
z"/>
<path fill="#44ABCD" opacity="1.000000" stroke="none" 
	d="
M25.938881,75.714783 
	C25.458984,74.870850 25.011389,73.660141 24.823092,72.229019 
	C25.378654,73.121735 25.674919,74.234871 25.938881,75.714783 
z"/>
<path fill="#000000" opacity="1.000000" stroke="none" 
	d="
M154.572998,100.285950 
	C156.975784,103.291893 158.546188,106.492371 155.816513,109.388687 
	C153.567505,111.774979 150.355057,111.849243 148.119751,108.989418 
	C145.853195,106.089607 147.017044,103.265717 149.601990,101.291733 
	C150.766846,100.402199 152.657211,100.462738 154.572998,100.285950 
z"/>
<path fill="#000000" opacity="1.000000" stroke="none" 
	d="
M57.009575,44.615120 
	C62.719925,44.447128 68.422005,44.730751 74.550209,45.062950 
	C74.976334,45.111526 74.999924,45.025238 75.038818,45.264847 
	C75.364441,45.690155 75.651184,45.875854 75.937920,46.061550 
	C78.765160,53.313046 76.428772,56.917229 68.416885,57.094666 
	C67.517052,57.112392 67.031319,57.030109 66.543648,57.016357 
	C63.482910,56.930031 59.207500,58.031048 57.693027,56.462090 
	C56.092274,54.803741 57.114986,50.607052 57.006077,47.518661 
	C56.977291,46.702309 57.001457,45.884090 57.009575,44.615120 
z"/>
<path fill="#4FB0D0" opacity="1.000000" stroke="none" 
	d="
M81.977013,45.985245 
	C83.019417,45.222584 83.989510,44.273022 85.152855,43.822994 
	C85.460312,43.704056 86.363541,45.125198 86.410233,46.676659 
	C85.130554,46.395527 83.850883,46.114395 82.287109,45.918320 
	C82.003014,46.003372 81.977013,45.985245 81.977013,45.985245 
z"/>
<path fill="#4FB0D0" opacity="1.000000" stroke="none" 
	d="
M82.014641,46.014557 
	C81.705482,47.654514 81.384697,49.283287 81.063911,50.912060 
	C80.434402,50.640762 79.804893,50.369461 79.175392,50.098160 
	C79.940178,48.867767 80.704971,47.637371 81.723389,46.196114 
	C81.977013,45.985245 82.003014,46.003372 82.014641,46.014557 
z"/>
<path fill="#57B3D2" opacity="1.000000" stroke="none" 
	d="
M84.474823,41.510677 
	C84.460823,41.480350 84.488823,41.541004 84.474823,41.510677 
z"/>
<path fill="#BEE2EF" opacity="1.000000" stroke="none" 
	d="
M75.841339,45.815723 
	C75.651184,45.875854 75.364441,45.690155 74.995728,45.252865 
	C75.190750,45.190811 75.467758,45.380352 75.841339,45.815723 
z"/>
</svg>